<?xml version="1.0" encoding="UTF-8" standalone="no"?>
<!-- Created with Inkscape (http://www.inkscape.org/) -->

<svg
   xmlns:dc="http://purl.org/dc/elements/1.1/"
   xmlns:cc="http://creativecommons.org/ns#"
   xmlns:rdf="http://www.w3.org/1999/02/22-rdf-syntax-ns#"
   xmlns:svg="http://www.w3.org/2000/svg"
   xmlns="http://www.w3.org/2000/svg"
   xmlns:sodipodi="http://sodipodi.sourceforge.net/DTD/sodipodi-0.dtd"
   xmlns:inkscape="http://www.inkscape.org/namespaces/inkscape"
   width="7.6307082mm"
   height="7.6071453mm"
   viewBox="0 0 7.6307083 7.6071452"
   version="1.1"
   id="svg8"
   sodipodi:docname="circless-white-hammer.svg"
   inkscape:version="0.92.3 (2405546, 2018-03-11)">
  <defs
     id="defs2" />
  <sodipodi:namedview
     id="base"
     pagecolor="#ffffff"
     bordercolor="#666666"
     borderopacity="1.0"
     inkscape:pageopacity="0.0"
     inkscape:pageshadow="2"
     inkscape:zoom="15.839192"
     inkscape:cx="7.999258"
     inkscape:cy="9.2249026"
     inkscape:document-units="mm"
     inkscape:current-layer="layer1"
     showgrid="false"
     inkscape:window-width="1920"
     inkscape:window-height="1017"
     inkscape:window-x="-8"
     inkscape:window-y="-8"
     inkscape:window-maximized="1" />
  <metadata
     id="metadata5">
    <rdf:RDF>
      <cc:Work
         rdf:about="">
        <dc:format>image/svg+xml</dc:format>
        <dc:type
           rdf:resource="http://purl.org/dc/dcmitype/StillImage" />
      </cc:Work>
    </rdf:RDF>
  </metadata>
  <g
     inkscape:label="Layer 1"
     inkscape:groupmode="layer"
     id="layer1"
     transform="translate(-75.347778,-122.39479)">
    <path
       style="color:#000000;font-style:normal;font-variant:normal;font-weight:normal;font-stretch:normal;font-size:medium;line-height:normal;font-family:sans-serif;font-variant-ligatures:normal;font-variant-position:normal;font-variant-caps:normal;font-variant-numeric:normal;font-variant-alternates:normal;font-feature-settings:normal;text-indent:0;text-align:start;text-decoration:none;text-decoration-line:none;text-decoration-style:solid;text-decoration-color:#000000;letter-spacing:normal;word-spacing:normal;text-transform:none;writing-mode:lr-tb;direction:ltr;text-orientation:mixed;dominant-baseline:auto;baseline-shift:baseline;text-anchor:start;white-space:normal;shape-padding:0;clip-rule:nonzero;display:inline;overflow:visible;visibility:visible;opacity:1;isolation:auto;mix-blend-mode:normal;color-interpolation:sRGB;color-interpolation-filters:linearRGB;solid-color:#000000;solid-opacity:1;vector-effect:none;fill-opacity:1;fill-rule:nonzero;stroke:none;stroke-width:0.26458338;stroke-linecap:butt;stroke-linejoin:miter;stroke-miterlimit:4;stroke-dasharray:none;stroke-dashoffset:0;stroke-opacity:1;color-rendering:auto;image-rendering:auto;shape-rendering:auto;text-rendering:auto;enable-background:accumulate;fill:#ffffff"
       d="m 78.86523,122.40625 c -0.0744,-0.0174 -0.171148,-0.0242 -0.24414,0.0488 -0.07029,0.0703 -0.07071,0.16433 -0.05664,0.24023 0.01407,0.0759 0.04583,0.15278 0.08984,0.23633 0.08803,0.1671 0.228756,0.35794 0.40625,0.54688 0.318778,0.33932 0.5848,0.56075 0.808594,0.65429 0.111897,0.0468 0.228926,0.0674 0.333984,0.006 0.105058,-0.0615 0.142578,-0.18399 0.142578,-0.30859 0,-0.16995 -0.103968,-0.30255 -0.236328,-0.46289 -0.13236,-0.16035 -0.306043,-0.33036 -0.486328,-0.48438 -0.180285,-0.15401 -0.365146,-0.29087 -0.527344,-0.38086 -0.0811,-0.045 -0.156064,-0.0783 -0.230469,-0.0957 z"
       id="path82"
       inkscape:connector-curvature="0" />
    <path
       style="color:#000000;font-style:normal;font-variant:normal;font-weight:normal;font-stretch:normal;font-size:medium;line-height:normal;font-family:sans-serif;font-variant-ligatures:normal;font-variant-position:normal;font-variant-caps:normal;font-variant-numeric:normal;font-variant-alternates:normal;font-feature-settings:normal;text-indent:0;text-align:start;text-decoration:none;text-decoration-line:none;text-decoration-style:solid;text-decoration-color:#000000;letter-spacing:normal;word-spacing:normal;text-transform:none;writing-mode:lr-tb;direction:ltr;text-orientation:mixed;dominant-baseline:auto;baseline-shift:baseline;text-anchor:start;white-space:normal;shape-padding:0;clip-rule:nonzero;display:inline;overflow:visible;visibility:visible;opacity:1;isolation:auto;mix-blend-mode:normal;color-interpolation:sRGB;color-interpolation-filters:linearRGB;solid-color:#000000;solid-opacity:1;vector-effect:none;fill-opacity:1;fill-rule:nonzero;stroke:none;stroke-width:0.26458338;stroke-linecap:butt;stroke-linejoin:miter;stroke-miterlimit:4;stroke-dasharray:none;stroke-dashoffset:0;stroke-opacity:1;color-rendering:auto;image-rendering:auto;shape-rendering:auto;text-rendering:auto;enable-background:accumulate;fill:#ffffff"
       d="m 78.83593,122.67578 c 0.03486,0.0114 0.07556,0.026 0.130859,0.0566 0.137044,0.076 0.313997,0.20601 0.484375,0.35156 0.170378,0.14556 0.334569,0.30755 0.453125,0.45118 0.118555,0.14362 0.177734,0.28564 0.177734,0.29492 0,0.0774 -0.01616,0.0827 -0.01172,0.0801 0.0044,-0.003 -0.02528,0.01 -0.09961,-0.0215 -0.14866,-0.0621 -0.410685,-0.26595 -0.716797,-0.59179 -0.163741,-0.1743 -0.29306,-0.35129 -0.365234,-0.48829 -0.02956,-0.0561 -0.04318,-0.0981 -0.05273,-0.13281 z"
       id="path80"
       inkscape:connector-curvature="0" />
    <path
       style="color:#000000;font-style:normal;font-variant:normal;font-weight:normal;font-stretch:normal;font-size:medium;line-height:normal;font-family:sans-serif;font-variant-ligatures:normal;font-variant-position:normal;font-variant-caps:normal;font-variant-numeric:normal;font-variant-alternates:normal;font-feature-settings:normal;text-indent:0;text-align:start;text-decoration:none;text-decoration-line:none;text-decoration-style:solid;text-decoration-color:#000000;letter-spacing:normal;word-spacing:normal;text-transform:none;writing-mode:lr-tb;direction:ltr;text-orientation:mixed;dominant-baseline:auto;baseline-shift:baseline;text-anchor:start;white-space:normal;shape-padding:0;clip-rule:nonzero;display:inline;overflow:visible;visibility:visible;opacity:1;isolation:auto;mix-blend-mode:normal;color-interpolation:sRGB;color-interpolation-filters:linearRGB;solid-color:#000000;solid-opacity:1;vector-effect:none;fill-opacity:1;fill-rule:nonzero;stroke:none;stroke-width:0.26458338;stroke-linecap:butt;stroke-linejoin:miter;stroke-miterlimit:4;stroke-dasharray:none;stroke-dashoffset:0;stroke-opacity:1;color-rendering:auto;image-rendering:auto;shape-rendering:auto;text-rendering:auto;enable-background:accumulate;fill:#ffffff"
       d="m 78.238273,122.77348 -0.375,0.75976 c -0.139968,0.28375 -0.53468,0.66253 -0.816406,0.78711 -0.189171,0.0837 -0.334117,0.15307 -0.443359,0.23438 -0.109242,0.0813 -0.191006,0.20065 -0.181641,0.33398 0.0094,0.13334 0.08521,0.24495 0.197266,0.37695 0.112059,0.13201 0.269369,0.28583 0.476562,0.48047 0.278946,0.26206 0.456208,0.41494 0.642578,0.46875 0.09319,0.0269 0.19705,0.0186 0.277344,-0.0293 0.08029,-0.0478 0.135066,-0.12024 0.1875,-0.20508 0.04475,-0.0724 0.08403,-0.12131 0.111328,-0.14649 0.0273,-0.0252 0.03625,-0.0268 0.04883,-0.0273 0.02515,-10e-4 0.124052,0.0411 0.291016,0.17969 0.187978,0.15601 0.369141,0.53805 0.369141,0.76953 0,0.18628 0.02926,0.33679 0.130859,0.44336 0.101597,0.10657 0.26952,0.12067 0.416015,0.0645 0.02529,-0.01 0.145947,0.003 0.300782,0.0898 0.154834,0.0873 0.339244,0.23175 0.521484,0.40429 0.364481,0.34508 0.716575,0.81342 0.839844,1.16407 0.106785,0.30376 0.334721,0.49847 0.601562,0.53124 0.266842,0.0328 0.553586,-0.0868 0.802735,-0.33593 l 0.04102,-0.043 -0.002,-0.0508 c 0.193403,-0.22715 0.327781,-0.47326 0.298828,-0.70899 -0.03277,-0.26684 -0.229444,-0.49477 -0.533203,-0.60156 -0.350647,-0.12327 -0.818984,-0.47536 -1.164062,-0.83984 -0.17254,-0.18224 -0.315045,-0.36861 -0.402344,-0.52344 -0.0873,-0.15483 -0.1015,-0.27354 -0.0918,-0.29883 0.05622,-0.14649 0.04212,-0.31442 -0.06445,-0.41601 -0.106572,-0.1016 -0.257077,-0.13086 -0.443359,-0.13086 -0.286426,0 -0.622038,-0.18804 -0.802735,-0.38868 -0.09035,-0.10031 -0.137134,-0.20315 -0.140625,-0.25585 -0.0017,-0.0264 0.0027,-0.0383 0.01172,-0.0508 0.009,-0.0125 0.02831,-0.0295 0.07422,-0.0449 0.08441,-0.0284 0.167118,-0.0861 0.201172,-0.17578 0.03405,-0.0897 0.01618,-0.18337 -0.02148,-0.27148 -0.07532,-0.17624 -0.240307,-0.37534 -0.501953,-0.64844 z"
       id="path78"
       inkscape:connector-curvature="0" />
    <path
       style="color:#000000;font-style:normal;font-variant:normal;font-weight:normal;font-stretch:normal;font-size:medium;line-height:normal;font-family:sans-serif;font-variant-ligatures:normal;font-variant-position:normal;font-variant-caps:normal;font-variant-numeric:normal;font-variant-alternates:normal;font-feature-settings:normal;text-indent:0;text-align:start;text-decoration:none;text-decoration-line:none;text-decoration-style:solid;text-decoration-color:#000000;letter-spacing:normal;word-spacing:normal;text-transform:none;writing-mode:lr-tb;direction:ltr;text-orientation:mixed;dominant-baseline:auto;baseline-shift:baseline;text-anchor:start;white-space:normal;shape-padding:0;clip-rule:nonzero;display:inline;overflow:visible;visibility:visible;opacity:1;isolation:auto;mix-blend-mode:normal;color-interpolation:sRGB;color-interpolation-filters:linearRGB;solid-color:#000000;solid-opacity:1;vector-effect:none;fill-opacity:1;fill-rule:nonzero;stroke:none;stroke-width:0.26458338;stroke-linecap:butt;stroke-linejoin:miter;stroke-miterlimit:4;stroke-dasharray:none;stroke-dashoffset:0;stroke-opacity:1;color-rendering:auto;image-rendering:auto;shape-rendering:auto;text-rendering:auto;enable-background:accumulate;fill:#ffffff"
       d="m 78.308583,123.22856 0.597656,0.62304 c 0.25361,0.26471 0.401456,0.46313 0.447266,0.57032 0.0229,0.0536 0.01709,0.0735 0.01758,0.0723 4.89e-4,-0.001 0.0032,0.004 -0.03711,0.0176 -0.0845,0.0284 -0.157431,0.0765 -0.205078,0.14258 -0.04765,0.0661 -0.06555,0.14719 -0.06055,0.22265 0.01,0.15093 0.09431,0.28674 0.208985,0.41407 0.229343,0.25464 0.604843,0.47656 0.998047,0.47656 0.152406,0 0.238063,0.036 0.261718,0.0586 0.02366,0.0225 0.03255,0.039 -0.002,0.12891 -0.06495,0.16927 0.0061,0.34224 0.109375,0.52539 0.103266,0.18315 0.257864,0.38035 0.441407,0.57422 0.367085,0.38772 0.842225,0.75866 1.267578,0.9082 0.232504,0.0817 0.337256,0.21863 0.357422,0.38281 0.02017,0.16418 -0.05389,0.37616 -0.261719,0.58399 -0.207832,0.20783 -0.419803,0.28188 -0.583985,0.26172 -0.164182,-0.0202 -0.301076,-0.12492 -0.382812,-0.35743 -0.149532,-0.42535 -0.520478,-0.90049 -0.908203,-1.26757 -0.193863,-0.18355 -0.391067,-0.3401 -0.574219,-0.44336 -0.183152,-0.10327 -0.356118,-0.17238 -0.525391,-0.10743 -0.08991,0.0345 -0.106354,0.0256 -0.128906,0.002 -0.02255,-0.0237 -0.05664,-0.10931 -0.05664,-0.26172 0,-0.3461 -0.194078,-0.74793 -0.464843,-0.97266 -0.178272,-0.14796 -0.308049,-0.24705 -0.472657,-0.24023 -0.0823,0.003 -0.158738,0.0421 -0.216796,0.0957 -0.05806,0.0536 -0.105599,0.12117 -0.15625,0.20313 -0.04161,0.0673 -0.07659,0.10268 -0.09766,0.11523 -0.02107,0.0126 -0.02944,0.0157 -0.07031,0.004 -0.08175,-0.0236 -0.262926,-0.15246 -0.535156,-0.40821 -0.205226,-0.19279 -0.357162,-0.34363 -0.455079,-0.45898 -0.09792,-0.11535 -0.132638,-0.19433 -0.134765,-0.22461 -0.0021,-0.0303 0.0024,-0.0466 0.07617,-0.10156 0.07379,-0.0549 0.208146,-0.12352 0.392578,-0.20508 0.367952,-0.16272 0.767106,-0.54688 0.947265,-0.91211 z"
       id="path76"
       inkscape:connector-curvature="0" />
    <path
       style="color:#000000;font-style:normal;font-variant:normal;font-weight:normal;font-stretch:normal;font-size:medium;line-height:normal;font-family:sans-serif;font-variant-ligatures:normal;font-variant-position:normal;font-variant-caps:normal;font-variant-numeric:normal;font-variant-alternates:normal;font-feature-settings:normal;text-indent:0;text-align:start;text-decoration:none;text-decoration-line:none;text-decoration-style:solid;text-decoration-color:#000000;letter-spacing:normal;word-spacing:normal;text-transform:none;writing-mode:lr-tb;direction:ltr;text-orientation:mixed;dominant-baseline:auto;baseline-shift:baseline;text-anchor:start;white-space:normal;shape-padding:0;clip-rule:nonzero;display:inline;overflow:visible;visibility:visible;opacity:1;isolation:auto;mix-blend-mode:normal;color-interpolation:sRGB;color-interpolation-filters:linearRGB;solid-color:#000000;solid-opacity:1;vector-effect:none;fill-opacity:1;fill-rule:nonzero;stroke:none;stroke-width:0.26458338;stroke-linecap:butt;stroke-linejoin:miter;stroke-miterlimit:4;stroke-dasharray:none;stroke-dashoffset:0;stroke-opacity:1;color-rendering:auto;image-rendering:auto;shape-rendering:auto;text-rendering:auto;enable-background:accumulate;fill:#ffffff"
       d="m 76.177723,125.1934 c -0.03391,-0.004 -0.08522,-7.8e-4 -0.128906,0.0352 -0.04369,0.0359 -0.05784,0.0894 -0.05859,0.125 -0.0015,0.0712 0.02195,0.11574 0.05078,0.17382 0.02883,0.0581 0.06886,0.12401 0.121093,0.20118 0.104467,0.15432 0.257194,0.35259 0.460938,0.58984 0.185187,0.21564 0.405073,0.38012 0.597656,0.4668 0.09629,0.0433 0.185369,0.0723 0.283203,0.0586 0.04892,-0.007 0.1037,-0.029 0.142578,-0.0742 0.03888,-0.0452 0.05469,-0.10504 0.05469,-0.1582 0,-7.1e-4 -0.0023,-0.0215 -0.0039,-0.0293 -0.0016,-0.008 -0.004,-0.0141 -0.0059,-0.0195 -0.0038,-0.0108 -0.0062,-0.0186 -0.0098,-0.0254 -0.0072,-0.0137 -0.01382,-0.0243 -0.02148,-0.0352 -0.01534,-0.0216 -0.0339,-0.0438 -0.05664,-0.0703 -0.04548,-0.053 -0.108784,-0.12013 -0.185547,-0.19922 -0.153526,-0.15817 -0.362811,-0.36311 -0.59375,-0.57812 -0.205642,-0.19146 -0.360056,-0.31584 -0.476563,-0.38868 -0.05825,-0.0364 -0.102102,-0.0643 -0.169922,-0.0723 z"
       id="path74"
       inkscape:connector-curvature="0" />
    <path
       style="color:#000000;font-style:normal;font-variant:normal;font-weight:normal;font-stretch:normal;font-size:medium;line-height:normal;font-family:sans-serif;font-variant-ligatures:normal;font-variant-position:normal;font-variant-caps:normal;font-variant-numeric:normal;font-variant-alternates:normal;font-feature-settings:normal;text-indent:0;text-align:start;text-decoration:none;text-decoration-line:none;text-decoration-style:solid;text-decoration-color:#000000;letter-spacing:normal;word-spacing:normal;text-transform:none;writing-mode:lr-tb;direction:ltr;text-orientation:mixed;dominant-baseline:auto;baseline-shift:baseline;text-anchor:start;white-space:normal;shape-padding:0;clip-rule:nonzero;display:inline;overflow:visible;visibility:visible;opacity:1;isolation:auto;mix-blend-mode:normal;color-interpolation:sRGB;color-interpolation-filters:linearRGB;solid-color:#000000;solid-opacity:1;vector-effect:none;fill-opacity:1;fill-rule:nonzero;stroke:none;stroke-width:0.26458338;stroke-linecap:butt;stroke-linejoin:miter;stroke-miterlimit:4;stroke-dasharray:none;stroke-dashoffset:0;stroke-opacity:1;color-rendering:auto;image-rendering:auto;shape-rendering:auto;text-rendering:auto;enable-background:accumulate;fill:#ffffff"
       d="m 76.496083,125.7266 c 0.0558,0.0479 0.08075,0.06 0.148437,0.12305 0.22813,0.2124 0.434942,0.41481 0.583985,0.56836 0.05277,0.0544 0.08701,0.093 0.123046,0.13281 -0.01047,-0.004 -0.0102,-7.8e-4 -0.02148,-0.006 -0.143524,-0.0646 -0.345893,-0.21412 -0.505859,-0.40039 -0.14745,-0.1717 -0.237171,-0.29452 -0.328125,-0.41797 z"
       id="path72"
       inkscape:connector-curvature="0" />
    <path
       style="color:#000000;font-style:normal;font-variant:normal;font-weight:normal;font-stretch:normal;font-size:medium;line-height:normal;font-family:sans-serif;font-variant-ligatures:normal;font-variant-position:normal;font-variant-caps:normal;font-variant-numeric:normal;font-variant-alternates:normal;font-feature-settings:normal;text-indent:0;text-align:start;text-decoration:none;text-decoration-line:none;text-decoration-style:solid;text-decoration-color:#000000;letter-spacing:normal;word-spacing:normal;text-transform:none;writing-mode:lr-tb;direction:ltr;text-orientation:mixed;dominant-baseline:auto;baseline-shift:baseline;text-anchor:start;white-space:normal;shape-padding:0;clip-rule:nonzero;display:inline;overflow:visible;visibility:visible;opacity:1;isolation:auto;mix-blend-mode:normal;color-interpolation:sRGB;color-interpolation-filters:linearRGB;solid-color:#000000;solid-opacity:1;vector-effect:none;fill-opacity:1;fill-rule:nonzero;stroke:none;stroke-width:0.26458338;stroke-linecap:butt;stroke-linejoin:miter;stroke-miterlimit:4;stroke-dasharray:none;stroke-dashoffset:0;stroke-opacity:1;color-rendering:auto;image-rendering:auto;shape-rendering:auto;text-rendering:auto;enable-background:accumulate;fill:#ffffff"
       d="m 76.421863,128.23051 c -0.04412,0.008 -0.07964,0.0157 -0.111328,0.0254 -0.03169,0.01 -0.057,0.0159 -0.09375,0.0449 -0.0092,0.007 -0.0208,0.017 -0.03125,0.0312 -0.0052,0.007 -0.0091,0.0154 -0.01367,0.0254 -0.0046,0.01 -0.01157,0.0324 -0.01172,0.0332 -1.53e-4,8.4e-4 -0.002,0.0402 -0.002,0.041 8.4e-5,8.3e-4 0.0053,0.0258 0.0098,0.0371 0.0089,0.0226 0.02196,0.0375 0.0332,0.0488 0.04498,0.0452 0.07178,0.0449 0.101562,0.0527 0.11915,0.0312 0.30845,0.0415 0.603516,0.043 0.295071,0.002 0.508087,-0.01 0.638672,-0.0352 0.03265,-0.006 0.05857,-0.0112 0.08984,-0.0254 0.01564,-0.007 0.03364,-0.0159 0.05469,-0.0371 0.02105,-0.0212 0.04721,-0.0666 0.04297,-0.11523 -0.0042,-0.0486 -0.03042,-0.0807 -0.04883,-0.0977 -0.01703,-0.0157 -0.03098,-0.0223 -0.04492,-0.0293 v -0.01 l -0.09961,-0.0273 c -0.291549,-0.0763 -0.764118,-0.0741 -1.117187,-0.006 z"
       id="path70"
       inkscape:connector-curvature="0" />
    <path
       style="color:#000000;font-style:normal;font-variant:normal;font-weight:normal;font-stretch:normal;font-size:medium;line-height:normal;font-family:sans-serif;font-variant-ligatures:normal;font-variant-position:normal;font-variant-caps:normal;font-variant-numeric:normal;font-variant-alternates:normal;font-feature-settings:normal;text-indent:0;text-align:start;text-decoration:none;text-decoration-line:none;text-decoration-style:solid;text-decoration-color:#000000;letter-spacing:normal;word-spacing:normal;text-transform:none;writing-mode:lr-tb;direction:ltr;text-orientation:mixed;dominant-baseline:auto;baseline-shift:baseline;text-anchor:start;white-space:normal;shape-padding:0;clip-rule:nonzero;display:inline;overflow:visible;visibility:visible;opacity:1;isolation:auto;mix-blend-mode:normal;color-interpolation:sRGB;color-interpolation-filters:linearRGB;solid-color:#000000;solid-opacity:1;vector-effect:none;fill-opacity:1;fill-rule:nonzero;stroke:none;stroke-width:0.26458338;stroke-linecap:butt;stroke-linejoin:miter;stroke-miterlimit:4;stroke-dasharray:none;stroke-dashoffset:0;stroke-opacity:1;color-rendering:auto;image-rendering:auto;shape-rendering:auto;text-rendering:auto;enable-background:accumulate;fill:#ffffff"
       d="m 76.847644,128.6934 c -0.450798,-0.0204 -0.90232,0.0723 -1.171875,0.3418 -0.150374,0.15037 -0.255629,0.27393 -0.304687,0.4082 -0.02453,0.0671 -0.03268,0.14308 -0.0098,0.21484 0.02291,0.0718 0.0755,0.13006 0.136719,0.16992 0.122436,0.0797 0.286269,0.11356 0.515625,0.13868 0.229356,0.0251 0.522808,0.0351 0.892578,0.0351 0.402992,0 0.770139,-0.0122 1.039062,-0.0332 0.134462,-0.0105 0.243896,-0.024 0.326172,-0.0391 0.04114,-0.008 0.07405,-0.0147 0.107422,-0.0273 0.01668,-0.006 0.03468,-0.0126 0.05664,-0.0293 0.01098,-0.008 0.0228,-0.0202 0.03516,-0.0391 0.0062,-0.009 0.01319,-0.0198 0.01758,-0.0332 0.0044,-0.0134 0.0059,-0.0439 0.0059,-0.0449 0,-0.0817 -0.02533,-0.10274 -0.05078,-0.14453 -0.02545,-0.0418 -0.05978,-0.088 -0.09961,-0.13867 -0.07966,-0.10139 -0.18492,-0.22203 -0.302734,-0.33985 -0.283401,-0.2834 -0.742562,-0.4191 -1.19336,-0.43945 z"
       id="path68"
       inkscape:connector-curvature="0" />
    <path
       style="color:#000000;font-style:normal;font-variant:normal;font-weight:normal;font-stretch:normal;font-size:medium;line-height:normal;font-family:sans-serif;font-variant-ligatures:normal;font-variant-position:normal;font-variant-caps:normal;font-variant-numeric:normal;font-variant-alternates:normal;font-feature-settings:normal;text-indent:0;text-align:start;text-decoration:none;text-decoration-line:none;text-decoration-style:solid;text-decoration-color:#000000;letter-spacing:normal;word-spacing:normal;text-transform:none;writing-mode:lr-tb;direction:ltr;text-orientation:mixed;dominant-baseline:auto;baseline-shift:baseline;text-anchor:start;white-space:normal;shape-padding:0;clip-rule:nonzero;display:inline;overflow:visible;visibility:visible;opacity:1;isolation:auto;mix-blend-mode:normal;color-interpolation:sRGB;color-interpolation-filters:linearRGB;solid-color:#000000;solid-opacity:1;vector-effect:none;fill-opacity:1;fill-rule:nonzero;stroke:none;stroke-width:0.26458338;stroke-linecap:butt;stroke-linejoin:miter;stroke-miterlimit:4;stroke-dasharray:none;stroke-dashoffset:0;stroke-opacity:1;color-rendering:auto;image-rendering:auto;shape-rendering:auto;text-rendering:auto;enable-background:accumulate;fill:#ffffff"
       d="m 76.835924,128.95707 c 0.402381,0.0182 0.808944,0.15465 1.017578,0.36328 0.110861,0.11087 0.212148,0.22403 0.283203,0.31446 0.01291,0.0164 0.01854,0.0264 0.0293,0.041 -0.06461,0.01 -0.13736,0.0211 -0.242188,0.0293 -0.258589,0.0201 -0.620206,0.0312 -1.017578,0.0312 -0.364928,0 -0.651017,-0.01 -0.863281,-0.0332 -0.212264,-0.0232 -0.349639,-0.0646 -0.400391,-0.0977 -0.02538,-0.0165 -0.0281,-0.0236 -0.0293,-0.0273 -0.0012,-0.004 -0.003,-0.0135 0.0078,-0.043 0.02154,-0.059 0.102821,-0.17314 0.242187,-0.3125 0.179979,-0.17997 0.570275,-0.2838 0.972657,-0.26563 z"
       id="path409"
       inkscape:connector-curvature="0" />
  </g>
</svg>
