<?xml version="1.0" encoding="UTF-8" standalone="no"?>
<!-- Created with Inkscape (http://www.inkscape.org/) -->

<svg
   xmlns:dc="http://purl.org/dc/elements/1.1/"
   xmlns:cc="http://creativecommons.org/ns#"
   xmlns:rdf="http://www.w3.org/1999/02/22-rdf-syntax-ns#"
   xmlns:svg="http://www.w3.org/2000/svg"
   xmlns="http://www.w3.org/2000/svg"
   xmlns:sodipodi="http://sodipodi.sourceforge.net/DTD/sodipodi-0.dtd"
   xmlns:inkscape="http://www.inkscape.org/namespaces/inkscape"
   width="15.493997mm"
   height="16.930788mm"
   viewBox="0 0 15.493997 16.930788"
   version="1.1"
   id="svg8"
   inkscape:version="0.92.3 (2405546, 2018-03-11)"
   sodipodi:docname="white maana.svg">
  <defs
     id="defs2" />
  <sodipodi:namedview
     id="base"
     pagecolor="#ffffff"
     bordercolor="#666666"
     borderopacity="1.0"
     inkscape:pageopacity="0.0"
     inkscape:pageshadow="2"
     inkscape:zoom="5.6"
     inkscape:cx="-16.642077"
     inkscape:cy="32.108723"
     inkscape:document-units="mm"
     inkscape:current-layer="layer1"
     showgrid="false"
     inkscape:window-width="1920"
     inkscape:window-height="1017"
     inkscape:window-x="-8"
     inkscape:window-y="-8"
     inkscape:window-maximized="1" />
  <metadata
     id="metadata5">
    <rdf:RDF>
      <cc:Work
         rdf:about="">
        <dc:format>image/svg+xml</dc:format>
        <dc:type
           rdf:resource="http://purl.org/dc/dcmitype/StillImage" />
        <dc:title />
      </cc:Work>
    </rdf:RDF>
  </metadata>
  <g
     inkscape:label="Layer 1"
     inkscape:groupmode="layer"
     id="layer1"
     transform="translate(-84.754822,-40.772485)">
    <g
       id="g22"
       transform="translate(0.89769374,2.4568453)">
      <path
         style="fill:#ffffff;stroke-width:0.26458335"
         d="m 90.81557,54.870337 c -0.07937,-0.20685 0.229053,-0.93978 0.685397,-1.628734 0.627288,-0.947033 0.857003,-1.629888 0.941563,-2.798909 0.110635,-1.529523 -0.255557,-2.143974 -0.610762,-1.024823 -0.09103,0.286793 -0.8237,1.195613 -1.628167,2.019598 -1.310721,1.342523 -1.446228,1.585791 -1.304409,2.341748 0.08704,0.463975 0.07982,0.922029 -0.01605,1.017899 -0.09587,0.09587 -0.889541,-0.206909 -1.763716,-0.672839 -4.498655,-2.397758 -4.327968,-6.801395 0.408753,-10.545557 0.718271,-0.567761 1.579219,-1.032292 1.913217,-1.032292 1.16848,0 1.898224,-1.984912 1.337503,-3.638021 -0.171926,-0.506873 -0.1089,-0.594929 0.424247,-0.592728 1.04906,0.0043 3.301206,1.213499 4.433659,2.380415 1.553,1.600259 2.41022,3.568841 2.41022,5.534997 0,1.502338 0.0366,1.596889 0.595313,1.537738 0.482066,-0.05104 0.612365,0.08706 0.684954,0.725941 0.222417,1.957576 -1.131076,4.12752 -3.257812,5.222981 -1.011523,0.521027 -4.179686,1.528677 -4.806326,1.528677 -0.166795,0 -0.368208,-0.169241 -0.447584,-0.376091 z"
         id="path26"
         inkscape:connector-curvature="0" />
      <path
         style="fill:#ffffff;stroke-width:0.26458335"
         d="m 90.81557,54.870337 c -0.07937,-0.20685 0.229053,-0.93978 0.685397,-1.628734 0.627288,-0.947033 0.857003,-1.629888 0.941563,-2.798909 0.110635,-1.529523 -0.255557,-2.143974 -0.610762,-1.024823 -0.09103,0.286793 -0.8237,1.195613 -1.628167,2.019598 -1.310721,1.342523 -1.446228,1.585791 -1.304409,2.341748 0.08704,0.463975 0.07982,0.922029 -0.01605,1.017899 -0.09587,0.09587 -0.889541,-0.206909 -1.763716,-0.672839 -4.498655,-2.397758 -4.327968,-6.801395 0.408753,-10.545557 0.718271,-0.567761 1.579219,-1.032292 1.913217,-1.032292 1.16848,0 1.898224,-1.984912 1.337503,-3.638021 -0.171926,-0.506873 -0.1089,-0.594929 0.424247,-0.592728 1.04906,0.0043 3.301206,1.213499 4.433659,2.380415 1.553,1.600259 2.41022,3.568841 2.41022,5.534997 0,1.502338 0.0366,1.596889 0.595313,1.537738 0.482066,-0.05104 0.612365,0.08706 0.684954,0.725941 0.222417,1.957576 -1.131076,4.12752 -3.257812,5.222981 -1.011523,0.521027 -4.179686,1.528677 -4.806326,1.528677 -0.166795,0 -0.368208,-0.169241 -0.447584,-0.376091 z m 3.380324,-1.206361 c 2.147095,-0.738709 3.120589,-1.407622 3.795064,-2.607687 0.677517,-1.20548 0.749459,-1.895278 0.197668,-1.895278 -0.632737,0 -0.935153,-0.910911 -0.938505,-2.826877 -0.0042,-2.428139 -1.119839,-4.526911 -3.173598,-5.970519 -1.579358,-1.110146 -2.51626,-1.310735 -2.25337,-0.482442 0.377392,1.189058 -1.391684,3.723588 -2.599027,3.723588 -0.942435,0 -3.304213,2.2357 -4.04714,3.831093 -0.734341,1.576954 -0.779346,2.507832 -0.182098,3.76644 0.391109,0.824201 2.216624,2.456634 2.747202,2.456634 0.109451,0 0.323239,-0.356383 0.475082,-0.791963 0.151844,-0.435579 0.877484,-1.393366 1.612532,-2.128414 0.952293,-0.952294 1.421779,-1.675316 1.633297,-2.515329 0.58663,-2.329722 1.821524,-1.066095 1.821524,1.863906 0,0.959943 -0.20011,1.752675 -0.661458,2.620352 -0.363802,0.684217 -0.661458,1.297263 -0.661458,1.362323 0,0.240813 0.75158,0.104299 2.234285,-0.405827 z"
         id="path24"
         inkscape:connector-curvature="0" />
    </g>
  </g>
</svg>
